<svg width="30" height="30" viewBox="0 0 30 30" fill="none" xmlns="http://www.w3.org/2000/svg">
<g id="Frame" clip-path="url(#clip0_744_1162)">
<g id="Group">
<g id="Group_2">
<g id="Group_3">
<path id="Subtract" fill-rule="evenodd" clip-rule="evenodd" d="M30 15C30 23.2843 23.2843 30 15 30C6.71573 30 0 23.2843 0 15C0 6.71573 6.71573 0 15 0C23.2843 0 30 6.71573 30 15ZM16.4196 12.6474C16.334 12.7509 16.2479 12.8549 16.1556 12.9556V11.6223C16.1778 11.4445 16.1111 11.3779 15.9333 11.3779H12.8667C12.6889 11.3779 12.6222 11.4223 12.6222 11.6001V23.0001C12.6222 23.1779 12.6667 23.2223 12.8444 23.2223H16.0667C16.2667 23.2223 16.3111 23.1779 16.3111 22.9779V17.2223C16.3111 16.9112 16.3333 16.6001 16.3778 16.289C16.5333 15.0001 17.2 14.3779 18.4667 14.3112C19.4 14.2668 20.0444 14.7112 20.2889 15.6001C20.4444 16.089 20.4667 16.5779 20.4667 17.0668V22.9779C20.4667 23.1556 20.5111 23.2223 20.6889 23.2223H23.8889C24.0889 23.2223 24.1333 23.1779 24.1333 22.9779V16.7556C24.1111 15.7779 24.0667 14.8001 23.8 13.8445C23.4444 12.5556 22.6889 11.6668 21.3778 11.289C20.8222 11.1112 20.2444 11.0668 19.6444 11.0668C18.5556 11.0445 17.6444 11.4223 16.8667 12.1556C16.7008 12.3077 16.5607 12.477 16.4196 12.6474ZM10.3111 17.289V22.9334C10.3111 23.1334 10.2667 23.2001 10.0444 23.2001C9.33333 23.1853 8.62222 23.1902 7.91111 23.1952L7.91029 23.1952C7.55501 23.1976 7.19973 23.2001 6.84444 23.2001C6.66667 23.2001 6.62222 23.1557 6.62222 22.9779V11.5779C6.62222 11.4223 6.66667 11.3557 6.82222 11.3557H10.0667C10.2667 11.3557 10.3111 11.4445 10.3111 11.6223V17.289ZM8.46667 9.71121C9.64444 9.71121 10.6 8.75565 10.6 7.57788C10.6 6.42232 9.64444 5.46676 8.46667 5.46676C7.28889 5.46676 6.33333 6.42232 6.33333 7.6001C6.33333 8.75565 7.31111 9.71121 8.46667 9.71121Z" fill="white"/>
</g>
</g>
</g>
</g>
<defs>
<clipPath id="clip0_744_1162">
<rect width="30" height="30" fill="white"/>
</clipPath>
</defs>
</svg>
