<svg width="35" height="30" viewBox="0 0 35 30" fill="none" xmlns="http://www.w3.org/2000/svg">
<g id="Frame">
<g id="Group">
<path id="Vector" d="M30.999 18.092C30.7665 18.5934 30.363 18.7538 29.809 18.7404C28.7627 18.7137 27.7095 18.7337 26.6631 18.7337C26.075 18.7337 25.6646 18.3794 25.6578 17.8714C25.6441 17.3566 26.0681 16.9823 26.6631 16.9756C27.3812 16.9756 28.1061 16.9756 28.8242 16.9756C28.92 16.9756 29.0226 16.9756 29.1457 16.9756C29.0362 16.0999 29.0226 15.2442 28.7216 14.4287C28.5575 13.9741 28.2498 13.6131 27.8941 13.2855C27.6958 13.105 27.4975 12.8844 27.4017 12.6438C27.2718 12.2895 27.4633 11.9151 27.7779 11.7213C28.1061 11.514 28.4891 11.5341 28.8242 11.7747C29.9253 12.5703 30.5203 13.6599 30.7118 14.9701C30.8144 15.672 30.8691 16.3873 30.9511 17.0892C30.958 17.1561 30.9853 17.2296 30.999 17.2965C30.999 17.5572 30.999 17.8246 30.999 18.092Z" fill="white"/>
<path id="Vector_2" d="M16.3909 8.77328C15.9463 8.42567 15.5565 8.12485 15.1735 7.81066C14.8658 7.55663 14.7495 7.23575 14.8658 6.85471C14.982 6.50041 15.2487 6.26644 15.6249 6.25976C15.8506 6.25307 16.1241 6.32661 16.3019 6.4603C17.3278 7.23575 18.3331 8.03126 19.3316 8.82676C19.7419 9.15432 19.8035 9.66238 19.482 10.0635C18.6545 11.0929 17.8133 12.1157 16.9653 13.1252C16.6234 13.5329 16.0763 13.5664 15.6728 13.2455C15.3035 12.9447 15.2487 12.4299 15.5702 12.0221C15.9532 11.5408 16.3498 11.0662 16.7396 10.5849C16.7328 10.5582 16.726 10.5314 16.7191 10.5047C16.3019 10.5582 15.8779 10.5648 15.4744 10.6651C12.9645 11.3002 11.3369 12.8444 10.7761 15.3111C10.27 17.5439 10.9676 19.4825 12.6773 21.0468C13.0193 21.361 13.4296 21.6016 13.8126 21.869C14.1135 22.0762 14.2776 22.357 14.2297 22.7113C14.1819 23.0656 13.9767 23.3196 13.6279 23.4333C13.3544 23.5269 13.0876 23.4868 12.8414 23.3397C10.7077 22.0829 9.36042 20.2713 8.95692 17.8648C8.48503 15.0304 9.38777 12.6238 11.5557 10.6985C12.8962 9.53536 14.5033 8.91367 16.3909 8.77328Z" fill="white"/>
<path id="Vector_3" d="M17.4921 24.3758C17.9503 24.7368 18.3469 25.051 18.7504 25.3652C19.065 25.6125 19.2292 25.9201 19.1266 26.3211C18.9898 26.876 18.3606 27.1634 17.8614 26.876C17.5194 26.6754 17.2185 26.4147 16.9039 26.1741C16.1722 25.6059 15.4336 25.031 14.7086 24.4494C14.2162 24.055 14.1615 23.5737 14.5513 23.0923C15.3583 22.103 16.1722 21.1203 16.986 20.1376C17.2254 19.8435 17.5331 19.7031 17.9229 19.7967C18.3059 19.8903 18.5316 20.1376 18.6068 20.512C18.6615 20.7927 18.5521 21.0334 18.3743 21.254C18.0734 21.6217 17.7656 21.9893 17.4647 22.357C17.41 22.4238 17.3621 22.4907 17.2869 22.5977C17.9298 22.591 18.4906 22.4506 19.024 22.2367C21.3561 21.2941 22.7375 19.5894 22.9769 17.1361C23.1958 14.9501 22.3477 13.1318 20.5559 11.7614C20.4123 11.6545 20.2618 11.5542 20.1182 11.4405C19.6942 11.113 19.6053 10.6183 19.8925 10.2105C20.1729 9.81611 20.7132 9.72252 21.1509 10.0033C22.6144 10.9325 23.6882 12.1959 24.2968 13.7936C25.4594 16.8353 24.6456 20.151 22.1973 22.3436C21.0552 23.3932 19.578 24.1552 17.4921 24.3758Z" fill="white"/>
<path id="Vector_4" d="M4.49797 7.70364C4.55952 5.97894 5.10664 4.6219 6.46075 3.67264C8.22519 2.43594 10.6667 2.97741 11.7609 4.81576C12.5884 6.19954 12.5269 7.61674 11.8772 9.03394C11.6789 9.46846 11.1659 9.64895 10.7214 9.46846C10.2837 9.28797 10.0785 8.82002 10.2153 8.35877C10.3384 7.9443 10.4889 7.52984 10.5436 7.102C10.653 6.24633 10.1469 5.35056 9.38781 4.96283C8.5603 4.54168 7.59601 4.78902 6.96683 5.58453C6.00938 6.7945 6.10512 8.71975 7.18567 9.81607C7.5413 10.1704 7.96531 10.3843 8.48507 10.4043C9.09374 10.4311 9.46304 10.7988 9.43569 11.3469C9.41517 11.8483 9.00483 12.2026 8.42352 12.1491C8.02002 12.1157 7.60285 12.0555 7.23355 11.9085C5.78369 11.3202 4.98354 10.1837 4.62791 8.73312C4.55268 8.35208 4.53217 7.95767 4.49797 7.70364Z" fill="white"/>
<path id="Vector_5" d="M29.4737 7.92427C29.4258 9.22115 28.8445 10.5916 27.4425 11.5542C26.8681 11.9419 26.2252 12.1491 25.5208 12.1558C24.9737 12.1625 24.5702 11.8416 24.5428 11.3603C24.5086 10.8188 24.8643 10.4645 25.4456 10.3843C25.7807 10.3375 26.1363 10.2573 26.4167 10.0902C27.1895 9.63561 27.5314 8.8869 27.6409 8.0446C27.7708 7.0285 27.5451 6.09261 26.7928 5.33721C25.8833 4.42138 24.3924 4.62862 23.7563 5.75836C23.3323 6.50707 23.346 7.26915 23.6469 8.05129C23.7495 8.32537 23.8931 8.58608 23.7837 8.90027C23.6606 9.25457 23.4144 9.47517 23.0451 9.52865C22.669 9.58213 22.3407 9.44175 22.1629 9.11419C20.925 6.74773 21.903 3.94675 24.3855 3.15794C25.7807 2.71673 27.3536 3.2181 28.3658 4.43475C29.0907 5.29711 29.4805 6.40012 29.4737 7.92427Z" fill="white"/>
<path id="Vector_6" d="M4.84 16.9756C5.40079 16.9756 5.94107 16.9756 6.47451 16.9756C6.79594 16.9756 7.11053 16.969 7.43196 16.9756C7.94488 16.989 8.34154 17.3901 8.32786 17.8714C8.31418 18.3461 7.9312 18.7338 7.43196 18.7338C6.24882 18.7405 5.06569 18.7405 3.87571 18.7338C3.40382 18.7338 2.98665 18.3862 3.00033 17.945C3.0482 16.5211 3.10291 15.0972 3.60215 13.7402C3.89623 12.9513 4.40915 12.3096 5.10672 11.8149C5.51706 11.5208 6.02314 11.5876 6.33089 11.9553C6.6318 12.3096 6.63864 12.8511 6.2625 13.1318C5.33241 13.8337 5.05201 14.8031 4.94943 15.866C4.92207 16.2203 4.88104 16.5812 4.84 16.9756Z" fill="white"/>
</g>
</g>
</svg>
