<svg width="25" height="25" viewBox="0 0 25 25" fill="none" xmlns="http://www.w3.org/2000/svg">
<g id="Frame" clip-path="url(#clip0_204_61)">
<g id="Group">
<path id="Vector" d="M10.8397 25C10.4686 24.8307 10.3123 24.5508 10.2798 24.1406C10.2082 23.0403 10.104 21.9336 10.0129 20.8333C9.92824 19.7851 9.8436 18.7435 9.75245 17.6953C9.75245 17.6627 9.73943 17.6302 9.7199 17.5716C9.23813 17.5716 8.74985 17.5456 8.26808 17.5781C7.71469 17.6107 7.35011 17.2591 7.36313 16.6666C7.38917 15.2604 7.36964 13.8541 7.36964 12.4414C7.36964 9.99998 9.10141 7.89711 11.5038 7.42185C11.5819 7.40883 11.66 7.40883 11.7642 7.39581C11.7642 7.49347 11.7642 7.58462 11.7642 7.66925C11.7642 9.22524 11.7642 10.7747 11.7642 12.3307C11.7642 12.6823 11.8879 12.9557 12.2134 13.0989C12.7082 13.3203 13.2225 12.9492 13.229 12.3763C13.2355 11.5885 13.229 10.8008 13.229 10.0065C13.229 9.21873 13.229 8.43097 13.229 7.6367C13.229 7.55857 13.229 7.47394 13.229 7.37628C14.0754 7.48696 14.8176 7.78644 15.4816 8.27472C16.8748 9.30336 17.604 10.6836 17.617 12.4219C17.6301 13.8541 17.617 15.2864 17.617 16.7187C17.617 17.2591 17.3371 17.5456 16.7967 17.5456C16.2954 17.5456 15.7876 17.5456 15.2603 17.5456C15.2342 17.7929 15.2082 18.0338 15.1887 18.2747C15.0715 19.7526 14.9543 21.2239 14.8306 22.7018C14.785 23.2357 14.7394 23.7695 14.6873 24.3034C14.6548 24.6419 14.4334 24.8242 14.1535 24.9674C13.0532 25 11.9465 25 10.8397 25Z" fill="white"/>
<path id="Vector_2" d="M-0.0001475 12.7474C0.0584463 12.513 0.0975088 12.2721 0.175634 12.0442C0.755061 10.2994 1.94647 9.25127 3.76287 8.93226C3.81496 8.92575 3.86704 8.89971 3.94517 8.87367C2.00506 8.43747 1.29543 6.8294 1.49074 5.55987C1.73162 3.98435 2.99464 2.97523 4.59621 3.02732C5.95688 3.07289 7.20037 4.27732 7.31756 5.66403C7.44777 7.21351 6.4647 8.50258 4.82407 8.86716C5.16912 8.9583 5.4686 9.0169 5.75506 9.11455C6.05454 9.21872 6.33449 9.35544 6.63397 9.48565C6.50376 9.79164 6.38006 10.0651 6.26938 10.345C5.98944 11.0807 5.85923 11.8489 5.85923 12.6302C5.85923 14.0364 5.85272 15.4427 5.85923 16.8489C5.85923 17.7213 6.23683 18.3919 6.98553 18.8476C7.05063 18.8867 7.11574 19.0104 7.10923 19.0885C6.99855 20.2929 6.86834 21.4974 6.74464 22.7018C6.69256 23.1836 6.63397 23.6718 6.60142 24.1601C6.58188 24.5638 6.39959 24.8307 6.04152 24.9935C4.93475 24.9935 3.82798 24.9935 2.72121 24.9935C2.36313 24.8307 2.18735 24.5638 2.16131 24.1601C2.13527 23.6914 2.07668 23.2226 2.0311 22.7539C1.88787 21.3151 1.74464 19.8763 1.60142 18.4375C1.57537 18.1836 1.54282 17.9297 1.51027 17.6627C1.30194 17.6627 1.11964 17.6497 0.943863 17.6627C0.494644 17.7083 0.169123 17.5455 -0.0131683 17.1224C-0.0001475 15.6771 -0.0001475 14.2122 -0.0001475 12.7474Z" fill="white"/>
<path id="Vector_3" d="M18.9452 25C18.5871 24.8372 18.4178 24.5638 18.3853 24.1667C18.2941 23.099 18.1769 22.0313 18.0663 20.9635C18.0077 20.3906 17.9556 19.8112 17.8905 19.2448C17.8644 19.043 17.884 18.9193 18.0858 18.7956C18.7629 18.3919 19.1209 17.7604 19.134 16.9792C19.1535 15.4688 19.147 13.9518 19.134 12.4414C19.1209 11.4974 18.8866 10.5925 18.4699 9.7461C18.4374 9.681 18.4113 9.61589 18.3788 9.53777C18.9191 9.1862 19.5181 9.01693 20.1366 8.89975C18.2811 8.47657 17.5129 6.92058 17.6952 5.59897C17.91 4.056 19.16 3.02084 20.7355 3.04037C22.1223 3.0599 23.3592 4.20574 23.522 5.63803C23.6782 7.0573 22.8058 8.52214 21.0806 8.90626C21.2173 8.9323 21.3605 8.95834 21.4973 8.99089C23.3267 9.38152 24.6808 10.8138 24.9608 12.6432C24.9673 12.6953 24.9933 12.7539 25.0064 12.806C25.0064 14.2578 25.0064 15.7031 25.0064 17.155C24.8241 17.5716 24.4986 17.7344 24.0493 17.6953C23.867 17.6758 23.6782 17.6953 23.4959 17.6953C23.4764 17.7734 23.4569 17.832 23.4569 17.8841C23.3527 18.9258 23.2551 19.9675 23.1509 21.0091C23.0467 22.0703 22.923 23.125 22.8384 24.1862C22.8058 24.5833 22.6366 24.8568 22.2785 25.0195C21.1587 25 20.0519 25 18.9452 25Z" fill="white"/>
<path id="Vector_4" d="M12.9881 0C13.1183 0.0325521 13.2485 0.0716146 13.3788 0.104167C15.0975 0.514323 16.2433 2.09635 16.1522 3.9388C16.0741 5.56641 14.7199 7.03776 13.0793 7.27865C10.69 7.63021 8.65219 5.73568 8.841 3.32682C8.96469 1.72526 10.2472 0.325521 11.8488 0.0520833C11.9009 0.0455729 11.953 0.0195312 12.0051 0C12.3371 0 12.6626 0 12.9881 0Z" fill="white"/>
</g>
</g>
<defs>
<clipPath id="clip0_204_61">
<rect width="25" height="25" fill="white"/>
</clipPath>
</defs>
</svg>
