<svg width="11" height="11" viewBox="0 0 11 11" fill="none" xmlns="http://www.w3.org/2000/svg">
<path id="Vector" d="M10.325 0.35C10.15 0.175 9.8 0 9.5375 0H1.05C0.4375 0 0 0.525 0 1.1375C0 1.75 0.525 2.1875 1.05 2.1875H6.9125L0.6125 8.4875C0.175 8.925 0.175 9.625 0.6125 10.0625C0.7875 10.2375 1.1375 10.4125 1.4 10.4125C1.6625 10.4125 1.925 10.325 2.1875 10.0625L8.4875 3.7625V9.625C8.4875 10.2375 9.0125 10.7625 9.5375 10.7625C10.15 10.7625 10.5875 10.2375 10.675 9.7125V1.225C10.675 0.7875 10.5875 0.525 10.325 0.35Z" fill="white"/>
</svg>
