<svg width="32" height="31" viewBox="0 0 32 31" fill="none" xmlns="http://www.w3.org/2000/svg">
<g id="Frame" clip-path="url(#clip0_204_160)">
<g id="Group">
<path id="Vector" d="M1.99111 11.4134C1.46963 11.2683 0.995556 11.1232 0.521481 10.9298C-1.11759e-07 10.7363 -0.142222 10.4945 0.0948147 9.96253C0.18963 9.72072 0.379259 9.47891 0.568889 9.33383C1.75407 8.2215 2.98667 7.15754 4.21926 6.09358C4.83556 5.5616 5.30963 5.70668 5.54667 6.52884C5.97333 8.12478 6.44741 9.67236 6.87407 11.2683C6.92148 11.5101 6.96889 11.8003 6.92148 12.0905C6.82667 12.6708 6.58963 12.8159 6.06815 12.6708C5.49926 12.5257 4.97778 12.3323 4.26667 12.1388C4.12444 13.2511 3.93482 14.3151 3.93482 15.3791C3.79259 21.6661 8.39111 27.3728 14.5541 28.3401C20.1007 29.2106 24.4622 27.131 27.6385 22.4399C28.16 21.6661 28.7763 21.4727 29.3926 21.9079C30.0089 22.3432 30.1037 23.0203 29.677 23.7457C26.4533 29.1622 20.1007 31.9672 13.843 30.8065C7.68 29.6458 2.93926 24.7613 1.84889 18.5226C1.46963 16.2979 1.51704 14.1217 1.8963 11.9937C1.9437 11.8486 1.9437 11.6552 1.99111 11.4134Z" fill="white"/>
<path id="Vector_2" d="M16.7348 25.7286C13.4163 25.5835 10.7615 24.181 8.81778 21.4727C8.2963 20.6989 8.2963 19.3448 8.96 18.6677C9.48148 18.1841 10.1452 17.7488 10.8089 17.4587C11.9467 16.9267 13.2267 16.83 14.2222 15.9111C14.317 15.8627 14.5067 15.9111 14.6489 15.9594C16.1185 16.5398 17.5881 16.5398 19.1052 15.9594C19.2474 15.9111 19.437 15.9111 19.5793 15.9594C20.4326 16.3463 21.2859 16.7816 22.1393 17.1685C22.803 17.4587 23.4667 17.7005 24.1304 18.039C25.4104 18.7161 25.6 20.6506 24.7467 21.7629C22.5659 24.3744 19.9585 25.6802 16.7348 25.7286Z" fill="white"/>
<path id="Vector_3" d="M16.7822 15.3791C14.08 15.3791 11.8518 13.1061 11.8993 10.3494C11.8993 7.59281 14.1274 5.36816 16.877 5.36816C19.5793 5.36816 21.8074 7.64118 21.76 10.3978C21.7126 13.1544 19.5318 15.3791 16.7822 15.3791Z" fill="white"/>
<path id="Vector_4" d="M29.4874 14.7504C29.4874 14.025 30.1037 13.4446 30.7674 13.493C31.4311 13.5414 32 14.1217 31.9526 14.7988C31.9526 15.5242 31.3363 16.0562 30.6726 16.0562C30.0089 16.0078 29.4874 15.4275 29.4874 14.7504Z" fill="white"/>
<path id="Vector_5" d="M15.4074 1.45084C15.4074 2.17627 14.8385 2.70825 14.1274 2.70825C13.4637 2.70825 12.8948 2.12791 12.8948 1.45084C12.8948 0.773774 13.5111 0.145069 14.1748 0.193431C14.8859 0.145069 15.4074 0.725412 15.4074 1.45084Z" fill="white"/>
<path id="Vector_6" d="M10.8089 3.86895C10.0978 3.86895 9.57629 3.33697 9.57629 2.6599C9.57629 1.93447 10.0978 1.35413 10.8089 1.35413C11.52 1.35413 12.0889 1.93447 12.0889 2.6599C12.0415 3.2886 11.52 3.86895 10.8089 3.86895Z" fill="white"/>
<path id="Vector_7" d="M25.4578 2.99841C26.1689 2.99841 26.7378 3.57876 26.6904 4.30419C26.6904 4.98125 26.1215 5.5616 25.4578 5.5616C24.7467 5.5616 24.1778 4.98125 24.2252 4.25582C24.2252 3.53039 24.7941 2.99841 25.4578 2.99841Z" fill="white"/>
<path id="Vector_8" d="M28.16 5.90015C28.8711 5.90015 29.3926 6.48049 29.3926 7.20592C29.3926 7.88299 28.8237 8.46333 28.16 8.46333C27.4963 8.46333 26.9274 7.88299 26.9274 7.20592C26.9274 6.48049 27.4963 5.90015 28.16 5.90015Z" fill="white"/>
<path id="Vector_9" d="M19.3896 1.2574C19.3896 1.98283 18.8207 2.56317 18.1096 2.56317C17.4459 2.56317 16.877 1.98283 16.877 1.30576C16.877 0.580335 17.4459 -8.56817e-06 18.157 0.0483534C18.8682 -8.56817e-06 19.3896 0.580335 19.3896 1.2574Z" fill="white"/>
<path id="Vector_10" d="M6.25778 4.83621C6.25778 4.11078 6.82667 3.5788 7.53778 3.5788C8.20149 3.5788 8.77037 4.15914 8.77037 4.83621C8.77037 5.51327 8.20149 6.09362 7.53778 6.09362C6.82667 6.14198 6.25778 5.56164 6.25778 4.83621Z" fill="white"/>
<path id="Vector_11" d="M31.2415 10.7847C31.2415 11.4618 30.72 12.0421 30.0563 12.0905C29.3926 12.1389 28.7763 11.5102 28.7763 10.8331C28.7763 10.1077 29.3452 9.52732 30.0563 9.57568C30.6726 9.52732 31.1941 10.0593 31.2415 10.7847Z" fill="white"/>
<path id="Vector_12" d="M31.5733 18.8128C31.5733 19.5382 31.0044 20.0702 30.2933 20.0702C29.6296 20.0702 29.0607 19.4899 29.0607 18.7644C29.0607 18.039 29.677 17.4587 30.3407 17.507C31.0518 17.5554 31.5733 18.1357 31.5733 18.8128Z" fill="white"/>
<path id="Vector_13" d="M23.1348 2.17629C23.1348 2.90172 22.6133 3.48207 21.9022 3.48207C21.2385 3.48207 20.6696 2.90172 20.6696 2.22466C20.6696 1.49923 21.2385 0.918884 21.9022 0.918884C22.6133 0.918884 23.1348 1.45087 23.1348 2.17629Z" fill="white"/>
</g>
</g>
<defs>
<clipPath id="clip0_204_160">
<rect width="32" height="31" fill="white"/>
</clipPath>
</defs>
</svg>
