<svg width="30" height="30" viewBox="0 0 30 30" fill="none" xmlns="http://www.w3.org/2000/svg">
<path id="Subtract" fill-rule="evenodd" clip-rule="evenodd" d="M29.1849 15.0002C29.1849 23.0593 22.6516 29.5926 14.5924 29.5926C6.53326 29.5926 0 23.0593 0 15.0002C0 6.94097 6.53326 0.407715 14.5924 0.407715C22.6516 0.407715 29.1849 6.94097 29.1849 15.0002ZM18.3108 7.52018C17.338 7.47694 17.0353 7.47694 14.5924 7.47694C12.1496 7.47694 11.8469 7.47694 10.8741 7.52018C9.96609 7.56341 9.49049 7.71474 9.16621 7.84445C8.73384 8.0174 8.43119 8.21197 8.10691 8.53624C7.78263 8.86052 7.58807 9.16318 7.41512 9.59555C7.28541 9.91982 7.13408 10.417 7.09084 11.3034C7.04761 12.2762 7.04761 12.5573 7.04761 15.0218C7.04761 17.4863 7.04761 17.7673 7.09084 18.7401C7.13408 19.6481 7.28541 20.1237 7.41512 20.448C7.58807 20.8804 7.78263 21.183 8.10691 21.5073C8.43119 21.8316 8.73384 22.0261 9.16621 22.1991C9.49049 22.3288 9.98771 22.4801 10.8741 22.5234C11.8469 22.5666 12.1495 22.5666 14.5921 22.5666H14.5924H14.5928C17.057 22.5666 17.338 22.5666 18.3108 22.5234C19.2188 22.4801 19.6944 22.3288 20.0187 22.1991C20.451 22.0261 20.7537 21.8316 21.078 21.5073C21.4022 21.183 21.5968 20.8804 21.7698 20.448C21.8995 20.1237 22.0508 19.6265 22.094 18.7401C22.1373 17.7673 22.1373 17.4863 22.1373 15.0218C22.1373 12.5573 22.1373 12.2762 22.094 11.3034C22.0508 10.3954 21.8995 9.91982 21.7698 9.59555C21.5968 9.16318 21.4022 8.86052 21.078 8.53624C20.7537 8.21197 20.451 8.0174 20.0187 7.84445C19.6944 7.71474 19.1972 7.56341 18.3108 7.52018ZM10.8092 5.87718C11.782 5.81232 12.1063 5.81232 14.5924 5.81232C17.0786 5.81232 17.4028 5.81232 18.3757 5.87718C19.3485 5.92041 20.0187 6.07174 20.6024 6.30955C21.2077 6.54735 21.7049 6.85001 22.2237 7.36885C22.7426 7.86607 23.0452 8.38491 23.283 8.99023C23.5208 9.57393 23.6722 10.2441 23.7154 11.2169C23.7803 12.1898 23.7803 12.514 23.7803 15.0002C23.7803 17.3385 23.7611 17.7643 23.7229 18.6161L23.7154 18.7834C23.6722 19.7562 23.5208 20.4264 23.283 21.0101C23.0452 21.6154 22.7426 22.1126 22.2237 22.6315C21.7265 23.1503 21.2077 23.453 20.6024 23.6908C20.0187 23.9286 19.3485 24.0799 18.3757 24.1231C17.4028 24.188 17.0786 24.188 14.5924 24.188C12.2541 24.188 11.8282 24.1689 10.9764 24.1306L10.8092 24.1231C9.83638 24.0799 9.16621 23.9286 8.58251 23.6908C7.9772 23.453 7.47998 23.1503 6.96113 22.6315C6.44229 22.1342 6.13963 21.6154 5.90183 21.0101C5.66403 20.4264 5.5127 19.7562 5.46946 18.7834C5.40461 17.8105 5.40461 17.4863 5.40461 15.0002C5.40461 12.514 5.40461 12.1898 5.46946 11.2169C5.5127 10.2441 5.66403 9.57393 5.90183 8.99023C6.13963 8.38491 6.44229 7.88769 6.96113 7.36885C7.45836 6.85001 7.9772 6.54735 8.58251 6.30955C9.16621 6.07174 9.83638 5.92041 10.8092 5.87718ZM14.5924 10.2873C11.9766 10.2873 9.87962 12.4059 9.87962 15.0002C9.87962 17.5944 11.9982 19.713 14.5924 19.713C17.2083 19.713 19.3053 17.5944 19.3053 15.0002C19.3053 12.4059 17.2083 10.2873 14.5924 10.2873ZM14.5924 18.07C12.9062 18.07 11.5226 16.708 11.5226 15.0002C11.5226 13.2923 12.8846 11.9303 14.5924 11.9303C16.3003 11.9303 17.6623 13.2923 17.6623 15.0002C17.6623 16.708 16.2787 18.07 14.5924 18.07ZM20.6024 10.0928C20.6024 10.7017 20.1087 11.1953 19.4998 11.1953C18.8909 11.1953 18.3973 10.7017 18.3973 10.0928C18.3973 9.48385 18.8909 8.99023 19.4998 8.99023C20.1087 8.99023 20.6024 9.48385 20.6024 10.0928Z" fill="white"/>
</svg>
