<svg width="29" height="31" viewBox="0 0 29 31" fill="none" xmlns="http://www.w3.org/2000/svg">
<g id="Frame" clip-path="url(#clip0_204_137)">
<g id="Group">
<path id="Vector" d="M11.2352 6.43745C10.688 5.78814 10.1044 5.10172 9.50251 4.39676C14.5182 1.70675 21.9415 2.7642 26.2277 8.51525C30.4044 14.1179 29.8025 22.1508 24.805 27.0856C19.8075 32.0018 12.1472 32.3357 6.71194 27.8647C1.4044 23.5051 0.0911878 15.5649 3.73899 9.62835C4.32263 10.3148 4.92452 10.9455 5.43521 11.6505C5.54465 11.7989 5.39874 12.207 5.2893 12.4668C2.53521 18.997 6.14653 26.3249 12.9497 27.9575C19.9535 29.6457 26.8843 23.5978 26.2824 16.307C25.7535 9.81387 20.7195 5.36145 14.3176 5.82524C13.3145 5.8809 12.3478 6.21483 11.2352 6.43745Z" fill="white"/>
<path id="Vector_2" d="M0 4.08139C1.25849 4.08139 2.22516 4.06284 3.19182 4.08139C3.79371 4.09994 4.12201 3.93298 4.19497 3.22801C4.3044 2.18911 4.55975 1.18732 4.77862 0.0185547C5.74528 1.13166 6.63899 2.17056 7.51447 3.20946C7.97044 3.74746 8.38994 4.32256 8.90063 4.80491C10.4692 6.3076 11.527 7.97726 11.0711 10.3148C11.0164 10.5745 11.2352 10.9641 11.4359 11.2053C12.2019 12.1514 13.0226 13.0604 13.8069 14.0251C14.1717 14.4704 14.5 14.7116 15.1566 14.5817C16.4151 14.3405 17.5642 15.2125 17.8377 16.3998C18.1296 17.7355 17.4547 18.9785 16.1962 19.4051C15.0107 19.8133 13.7157 19.2753 13.278 18.0694C13.0774 17.4943 13.0226 16.7522 13.1868 16.1957C13.3692 15.6206 13.278 15.3052 12.895 14.9156C12.5302 14.5446 12.1289 14.1736 11.8918 13.7283C10.8704 11.8731 9.24717 11.4279 7.36855 11.5763C6.62076 11.632 6.14654 11.3351 5.67233 10.76C3.86667 8.58947 2.02453 6.45602 0 4.08139Z" fill="white"/>
<path id="Vector_3" d="M12.5484 11.3537C12.4025 11.1867 12.2566 11.0197 12.1107 10.8713C11.5453 10.3148 11.7824 9.99938 12.3843 9.73966C15.4484 8.36683 19.3881 9.33152 21.4491 12.0401C23.3459 14.5446 23.7289 17.3459 22.4704 20.2214C21.212 23.0969 18.9138 24.6738 15.8497 24.8408C12.8767 25.0078 10.4509 23.7462 8.88239 21.1119C7.2956 18.4775 7.33208 15.7319 8.75472 13.0048C9.0283 12.4853 9.41132 12.2256 9.92201 12.541C10.3962 12.8378 10.4145 13.2459 10.1044 13.7839C8.73648 16.2142 9.0283 19.1083 10.761 21.1119C12.5849 23.1897 15.3208 23.8576 17.8013 22.8187C20.2818 21.7798 21.8138 19.2938 21.6679 16.4925C21.4673 12.4111 17.1811 9.59125 13.3327 11.0012C13.0774 11.131 12.822 11.2424 12.5484 11.3537Z" fill="white"/>
</g>
</g>
<defs>
<clipPath id="clip0_204_137">
<rect width="29" height="31" fill="white"/>
</clipPath>
</defs>
</svg>
