<svg width="27" height="28" viewBox="0 0 27 28" fill="none" xmlns="http://www.w3.org/2000/svg">
<g id="Frame" clip-path="url(#clip0_204_111)">
<g id="Group">
<path id="Vector" d="M15.9153 20.9095C14.9159 22.931 15.0219 23.3685 16.5816 23.8664C16.5816 24.3491 16.5816 24.8621 16.5816 25.375C16.5816 25.8879 16.5816 26.4009 16.5816 27.0194C15.7487 27.1702 14.9764 27.3513 14.2041 27.4267C10.6304 27.7586 7.04149 27.7737 3.48289 27.2608C2.58945 27.125 2.13516 26.7931 2.24116 25.7974C2.34716 24.8319 2.2563 23.8513 2.27144 22.8707C2.30173 21.3922 3.27088 20.3815 4.7549 20.3815C6.11777 20.3815 7.45036 20.2758 8.81323 20.8491C9.50981 21.1358 10.5092 20.7737 11.3573 20.5927C12.8867 20.2758 14.3859 20.125 15.9153 20.9095Z" fill="white"/>
<path id="Vector_2" d="M5.67859 13.3211C5.95116 13.5022 6.14802 13.653 6.37517 13.7586C7.0566 14.1207 7.7229 13.8039 7.60175 13.0496C7.40489 11.8427 8.1469 11.194 8.79805 10.4698C8.96462 10.2737 9.32806 10.1681 9.60063 10.1681C10.9938 10.153 12.2052 10.6509 13.0381 11.7823C13.6135 12.5668 14.1284 13.4267 14.5221 14.3168C14.8855 15.1315 14.5221 15.931 14.0375 16.625C13.8104 16.9569 13.5378 17.2586 13.2955 17.5905C13.2198 17.681 13.1895 17.8017 13.129 17.9073C12.3567 19.2349 11.3421 20.3211 9.69149 20.3211C8.0409 20.3211 7.0566 19.2198 6.25402 17.9073C5.93602 17.3793 5.51202 16.9267 5.16373 16.4289C4.46715 15.4332 4.57315 14.8147 5.67859 13.3211Z" fill="white"/>
<path id="Vector_3" d="M13.3107 18.8276C13.7801 18.1638 14.1132 17.6509 14.4918 17.153C15.3398 16.0215 15.6881 14.8297 14.7795 13.2155C16.0516 13.3815 17.1116 13.5323 18.1564 13.6379C18.8682 13.6983 19.5799 13.7284 20.2916 13.6832C21.3062 13.6228 22.3359 13.3815 23.3353 13.4116C24.3348 13.4418 25.0011 14.2715 25.0465 15.3427C25.0919 16.0668 24.9708 16.8211 25.0768 17.5302C25.2282 18.5862 24.7134 18.9634 23.7896 19.0388C23.3959 19.069 22.9871 19.069 22.6085 19.1595C21.3819 19.4763 20.5642 19.2047 20.0039 17.9526C19.5042 16.8211 18.3079 16.7457 17.8384 17.8017C17.2327 19.1595 16.3393 19.4461 15.0218 19.0991C14.5524 18.9935 14.0527 18.9634 13.3107 18.8276Z" fill="white"/>
<path id="Vector_4" d="M20.1099 7.55819C20.1099 7.1056 20.0796 6.84914 20.1099 6.57759C20.1856 5.95905 19.9736 5.53664 19.4739 5.11423C18.111 3.96767 18.1716 2.24785 19.5193 1.07112C21.2002 -0.362068 24.3197 -0.362068 25.9854 1.08621C27.3028 2.23276 27.3634 4.05819 25.9702 5.12931C25.3191 5.62716 24.4711 5.92888 23.6836 6.18535C23.0931 6.38147 22.3965 6.26078 21.8211 6.47198C21.2759 6.66811 20.8065 7.1056 20.1099 7.55819ZM20.8216 2.50431C21.4728 3.01724 24.1985 2.9569 24.5922 2.41379C23.8048 2.05173 21.3516 2.11207 20.8216 2.50431ZM21.7756 4.0431C22.6691 4.0431 23.5625 4.0431 24.4711 4.0431C24.4559 3.87716 24.5165 3.6056 24.4257 3.54526C24.1228 3.30388 22.1088 3.53017 21.7756 4.0431Z" fill="white"/>
<path id="Vector_5" d="M22.3359 7.00002C22.6237 7.39226 23.0022 7.6789 23.0477 8.01079C23.1234 8.62933 23.1688 9.33838 22.9417 9.89657C22.6994 10.5453 22.1694 11.1035 21.7454 11.6767C20.3371 13.6379 18.217 13.653 16.8087 11.722C16.2787 10.9979 15.779 10.2436 15.355 9.45907C15.037 8.88579 15.0219 8.29743 15.6276 7.81467C15.7942 7.6789 15.8244 7.39226 15.9607 7.19614C16.3393 6.65304 16.6573 6.04959 17.1267 5.597C17.4145 5.31036 18.1262 4.97847 18.2928 5.11424C18.7622 5.4914 19.5042 5.82329 19.3376 6.66812C19.2922 6.87933 19.3225 7.09054 19.3376 7.30174C19.3982 8.19183 19.9282 8.49355 20.6854 8.05605C20.9731 7.89011 21.2456 7.6789 21.5182 7.49786C21.8059 7.347 22.0634 7.18105 22.3359 7.00002Z" fill="white"/>
<path id="Vector_6" d="M6.95062 13.2155C6.43576 12.8836 6.17833 12.6573 5.87547 12.5367C5.26975 12.2953 4.66403 12.0237 4.02802 11.9483C2.84686 11.7974 1.74142 11.5259 0.863129 10.666C-0.302883 9.54959 -0.28774 7.96554 0.878272 6.84916C2.57429 5.23493 5.95118 5.23493 7.63206 6.84916C8.69207 7.89011 8.88893 9.35347 7.87435 10.3642C7.07177 11.1487 6.66291 11.9181 6.95062 13.2155ZM6.19347 8.47847C6.19347 8.35778 6.19347 8.23709 6.19347 8.1164C6.14804 8.04097 6.08747 7.92028 6.04204 7.92028C4.92146 7.8901 3.80087 7.85993 2.69543 7.87502C2.60458 7.87502 2.49858 8.1164 2.40772 8.23709C2.55915 8.31252 2.69543 8.46338 2.84686 8.46338C3.48287 8.49355 4.11888 8.47847 4.77003 8.47847C5.22432 8.47847 5.7089 8.47847 6.19347 8.47847ZM3.75545 9.76079C4.11888 9.76079 4.48231 9.79097 4.84574 9.74571C4.98203 9.73062 5.08803 9.54959 5.20918 9.44398C5.08803 9.33838 4.96689 9.15735 4.8306 9.14226C4.13402 9.11209 3.43744 9.11209 2.74086 9.14226C2.61972 9.14226 2.49858 9.35347 2.37743 9.45907C2.49858 9.56467 2.61972 9.73062 2.75601 9.74571C3.08915 9.79097 3.4223 9.76079 3.75545 9.76079Z" fill="white"/>
<path id="Vector_7" d="M18.8682 27.9849C18.5956 27.9849 18.323 27.9698 18.0353 27.9849C17.5204 28.0151 17.3387 27.7586 17.3387 27.2608C17.3539 26.1595 17.3236 25.0582 17.3539 23.972C17.369 23.3534 17.2176 22.9763 16.5059 22.9763C15.8699 22.9763 15.9001 22.584 16.1273 22.1767C16.8693 20.8793 17.6264 19.5819 18.3836 18.2996C18.7319 17.6961 19.0802 17.8168 19.3982 18.3448C20.125 19.5819 20.8368 20.834 21.5636 22.0711C21.8968 22.6293 21.8816 23.0065 21.0942 23.0065C20.5036 23.0065 20.3825 23.3534 20.3976 23.8513C20.4128 24.7112 20.4279 25.556 20.443 26.4159C20.443 28 20.443 28 18.8682 27.9849Z" fill="white"/>
</g>
</g>
<defs>
<clipPath id="clip0_204_111">
<rect width="27" height="28" fill="white"/>
</clipPath>
</defs>
</svg>
